<svg width="116" height="59" viewBox="0 0 116 59" fill="none" xmlns="http://www.w3.org/2000/svg">
<path d="M19.6591 0.81818L31.5909 41.8409H32.0455L43.9773 0.81818H61.8182L42.6136 59H21.0227L1.81818 0.81818H19.6591ZM65.8219 59V0.81818H90.9355C95.2537 0.81818 99.0321 1.60417 102.271 3.17614C105.509 4.74811 108.028 7.01136 109.828 9.96591C111.627 12.9205 112.526 16.4621 112.526 20.5909C112.526 24.7576 111.598 28.2708 109.742 31.1307C107.905 33.9905 105.32 36.1496 101.987 37.608C98.6723 39.0663 94.7991 39.7955 90.3673 39.7955H75.3673V27.5227H87.1855C89.0416 27.5227 90.623 27.2955 91.9298 26.8409C93.2556 26.3674 94.2688 25.6193 94.9696 24.5966C95.6893 23.5739 96.0492 22.2386 96.0492 20.5909C96.0492 18.9242 95.6893 17.5701 94.9696 16.5284C94.2688 15.4678 93.2556 14.6913 91.9298 14.1989C90.623 13.6875 89.0416 13.4318 87.1855 13.4318H81.6173V59H65.8219ZM99.9128 32.2955L114.458 59H97.2992L83.0946 32.2955H99.9128Z" fill="#ECECEC"/>
<rect x="23.5" y="8" width="33.234" height="33.234" transform="rotate(45 23.5 8)" fill="#D9D9D9"/>
<path d="M23.75 31.5L23.75 8.60355L46.6464 31.5L23.75 54.3964V31.5Z" fill="black" stroke="#060606" stroke-width="0.5"/>
</svg>
